<mxfile modified="2023-07-17T11:21:41.599Z" host="app.diagrams.net" agent="Mozilla/5.0 (Macintosh; Intel Mac OS X 10_15_7) AppleWebKit/537.36 (KHTML, like Gecko) Chrome/114.0.0.0 Safari/537.36 Edg/114.0.1823.79" etag="Uoq06-AohSkGgoOjEtMw" version="21.6.2" type="github">
  <diagram id="Ht1M8jgEwFfnCIfOTk4-" name="Page-1">
    <mxGraphModel dx="1632" dy="1156" grid="1" gridSize="10" guides="1" tooltips="1" connect="1" arrows="1" fold="1" page="1" pageScale="1" pageWidth="1169" pageHeight="827" math="0" shadow="0">
      <root>
        <mxCell id="0" />
        <mxCell id="1" parent="0" />
        <mxCell id="UEzPUAAOIrF-is8g5C7q-128" style="edgeStyle=orthogonalEdgeStyle;rounded=0;orthogonalLoop=1;jettySize=auto;html=1;startArrow=open;startFill=0;endArrow=open;endFill=0;strokeWidth=2;strokeColor=#808080;" parent="1" source="UEzPUAAOIrF-is8g5C7q-109" edge="1">
          <mxGeometry relative="1" as="geometry">
            <Array as="points">
              <mxPoint x="311" y="377" />
            </Array>
            <mxPoint x="369.5" y="376.5" as="targetPoint" />
          </mxGeometry>
        </mxCell>
        <mxCell id="UEzPUAAOIrF-is8g5C7q-126" style="edgeStyle=orthogonalEdgeStyle;rounded=0;orthogonalLoop=1;jettySize=auto;html=1;startArrow=open;startFill=0;endArrow=open;endFill=0;strokeWidth=2;strokeColor=#808080;" parent="1" edge="1">
          <mxGeometry relative="1" as="geometry">
            <mxPoint x="480" y="258" as="sourcePoint" />
            <mxPoint x="400" y="340" as="targetPoint" />
            <Array as="points">
              <mxPoint x="400" y="258" />
            </Array>
          </mxGeometry>
        </mxCell>
        <mxCell id="UEzPUAAOIrF-is8g5C7q-109" value="User" style="outlineConnect=0;gradientColor=none;fontColor=#545B64;strokeColor=none;fillColor=#879196;dashed=0;verticalLabelPosition=bottom;verticalAlign=top;align=center;html=1;fontSize=12;fontStyle=0;aspect=fixed;shape=mxgraph.aws4.illustration_desktop;pointerEvents=1;labelBackgroundColor=#ffffff;" parent="1" vertex="1">
          <mxGeometry x="90" y="340" width="100" height="91" as="geometry" />
        </mxCell>
        <mxCell id="QtLQ6WKAVyeS1xCRJUcY-1" value="" style="shape=image;imageAspect=0;aspect=fixed;verticalLabelPosition=bottom;verticalAlign=top;image=data:image/svg+xml,PHN2ZyB4bWxucz0iaHR0cDovL3d3dy53My5vcmcvMjAwMC9zdmciIHZpZXdCb3g9IjAgMCA2NCA2NCIgZmlsbD0ibm9uZSIgaGVpZ2h0PSI2NCIgd2lkdGg9IjY0Ij4mI3hhOyAgPHBhdGggZD0ibTI0Ljg0MSA0OS4xNy0xMi44Ni0xNy4yIDEyLjc5LTE2LjcxLTIuNDctMy4zNy0xNC40MSAxOC44NS0uMDIgMi40MSAxNC40OCAxOS4zOSAyLjQ5LTMuMzdaIiBmaWxsPSIjRjYzIi8+JiN4YTsgIDxwYXRoIGQ9Ik0yOS4zMzEgNy45NWgtNC45NWwxNy44NSAyNC40LTE3LjQzIDIzLjZoNC45OGwxNy40Mi0yMy41OS0xNy44Ny0yNC40MVoiIGZpbGw9IiNGNjMiLz4mI3hhOyAgPHBhdGggZD0iTTM4LjkwMSA3Ljk1aC01LjAxbDE4LjEzIDI0LjExLTE4LjEzIDIzLjg5aDUuMDJsMTcuMjEtMjIuNjh2LTIuNDFMMzguOTAxIDcuOTVaIiBmaWxsPSIjRjYzIi8+JiN4YTs8L3N2Zz4=;" vertex="1" parent="1">
          <mxGeometry x="370" y="340" width="64" height="64" as="geometry" />
        </mxCell>
        <mxCell id="QtLQ6WKAVyeS1xCRJUcY-4" value="API Gateway worker" style="text;html=1;align=center;verticalAlign=middle;resizable=0;points=[];autosize=1;strokeColor=none;fillColor=none;" vertex="1" parent="1">
          <mxGeometry x="335" y="398" width="130" height="30" as="geometry" />
        </mxCell>
        <mxCell id="QtLQ6WKAVyeS1xCRJUcY-5" value="" style="shape=image;imageAspect=0;aspect=fixed;verticalLabelPosition=bottom;verticalAlign=top;image=data:image/svg+xml,PHN2ZyB4bWxucz0iaHR0cDovL3d3dy53My5vcmcvMjAwMC9zdmciIHZpZXdCb3g9IjAgMCA2NCA2NCIgZmlsbD0ibm9uZSIgaGVpZ2h0PSI2NCIgd2lkdGg9IjY0Ij4mI3hhOyAgPHBhdGggZD0ibTI0Ljg0MSA0OS4xNy0xMi44Ni0xNy4yIDEyLjc5LTE2LjcxLTIuNDctMy4zNy0xNC40MSAxOC44NS0uMDIgMi40MSAxNC40OCAxOS4zOSAyLjQ5LTMuMzdaIiBmaWxsPSIjRjYzIi8+JiN4YTsgIDxwYXRoIGQ9Ik0yOS4zMzEgNy45NWgtNC45NWwxNy44NSAyNC40LTE3LjQzIDIzLjZoNC45OGwxNy40Mi0yMy41OS0xNy44Ny0yNC40MVoiIGZpbGw9IiNGNjMiLz4mI3hhOyAgPHBhdGggZD0iTTM4LjkwMSA3Ljk1aC01LjAxbDE4LjEzIDI0LjExLTE4LjEzIDIzLjg5aDUuMDJsMTcuMjEtMjIuNjh2LTIuNDFMMzguOTAxIDcuOTVaIiBmaWxsPSIjRjYzIi8+JiN4YTs8L3N2Zz4=;" vertex="1" parent="1">
          <mxGeometry x="490.5" y="221.5" width="64" height="64" as="geometry" />
        </mxCell>
        <mxCell id="QtLQ6WKAVyeS1xCRJUcY-6" value="Auth worker" style="text;html=1;align=center;verticalAlign=middle;resizable=0;points=[];autosize=1;strokeColor=none;fillColor=none;" vertex="1" parent="1">
          <mxGeometry x="475" y="278" width="90" height="30" as="geometry" />
        </mxCell>
        <mxCell id="QtLQ6WKAVyeS1xCRJUcY-7" value="" style="shape=image;imageAspect=0;aspect=fixed;verticalLabelPosition=bottom;verticalAlign=top;image=data:image/svg+xml,PHN2ZyB4bWxucz0iaHR0cDovL3d3dy53My5vcmcvMjAwMC9zdmciIHZpZXdCb3g9IjAgMCA2NCA2NCIgZmlsbD0ibm9uZSIgaGVpZ2h0PSI2NCIgd2lkdGg9IjY0Ij4mI3hhOyAgPHBhdGggZD0ibTI0Ljg0MSA0OS4xNy0xMi44Ni0xNy4yIDEyLjc5LTE2LjcxLTIuNDctMy4zNy0xNC40MSAxOC44NS0uMDIgMi40MSAxNC40OCAxOS4zOSAyLjQ5LTMuMzdaIiBmaWxsPSIjRjYzIi8+JiN4YTsgIDxwYXRoIGQ9Ik0yOS4zMzEgNy45NWgtNC45NWwxNy44NSAyNC40LTE3LjQzIDIzLjZoNC45OGwxNy40Mi0yMy41OS0xNy44Ny0yNC40MVoiIGZpbGw9IiNGNjMiLz4mI3hhOyAgPHBhdGggZD0iTTM4LjkwMSA3Ljk1aC01LjAxbDE4LjEzIDI0LjExLTE4LjEzIDIzLjg5aDUuMDJsMTcuMjEtMjIuNjh2LTIuNDFMMzguOTAxIDcuOTVaIiBmaWxsPSIjRjYzIi8+JiN4YTs8L3N2Zz4=;" vertex="1" parent="1">
          <mxGeometry x="490.5" y="480" width="64" height="64" as="geometry" />
        </mxCell>
        <mxCell id="QtLQ6WKAVyeS1xCRJUcY-10" style="edgeStyle=orthogonalEdgeStyle;rounded=0;orthogonalLoop=1;jettySize=auto;html=1;startArrow=open;startFill=0;endArrow=open;endFill=0;strokeWidth=2;strokeColor=#808080;" edge="1" parent="1" target="QtLQ6WKAVyeS1xCRJUcY-4">
          <mxGeometry relative="1" as="geometry">
            <mxPoint x="490.5" y="520" as="sourcePoint" />
            <mxPoint x="400.5" y="480" as="targetPoint" />
            <Array as="points">
              <mxPoint x="401" y="520" />
            </Array>
          </mxGeometry>
        </mxCell>
        <mxCell id="QtLQ6WKAVyeS1xCRJUcY-11" value="Application worker" style="text;html=1;align=center;verticalAlign=middle;resizable=0;points=[];autosize=1;strokeColor=none;fillColor=none;" vertex="1" parent="1">
          <mxGeometry x="460" y="548" width="120" height="30" as="geometry" />
        </mxCell>
        <mxCell id="QtLQ6WKAVyeS1xCRJUcY-12" value="Anycast IP&amp;nbsp;&lt;br&gt;nearest&amp;nbsp; Cloudflare DC" style="text;html=1;align=center;verticalAlign=middle;resizable=0;points=[];autosize=1;strokeColor=none;fillColor=none;" vertex="1" parent="1">
          <mxGeometry x="185" y="374" width="150" height="40" as="geometry" />
        </mxCell>
      </root>
    </mxGraphModel>
  </diagram>
</mxfile>
